<svg id="Flat" height="512" viewBox="0 0 512 512" width="512" xmlns="http://www.w3.org/2000/svg"><path d="m120 72h-48s0 127.015-36.665 179.384a63.349 63.349 0 0 0 -11.335 36.355v168.261a32 32 0 0 0 32 32h80a32 32 0 0 0 32-32v-168.261a63.349 63.349 0 0 0 -11.335-36.355c-36.665-52.369-36.665-179.384-36.665-179.384z" fill="#eb423f"/><rect fill="#c7312e" height="48" rx="16" width="96" x="48" y="72"/><path d="m24 280h144v160h-144z" fill="#ed6f6d"/><path d="m344 296v160a32 32 0 0 0 32 32h80a32 32 0 0 0 32-32v-160" fill="#ff8e26"/><path d="m368 104h96v48h-96z" fill="#d46109"/><path d="m440 88h-48l8-64h32z" fill="#d46109"/><path d="m488 296-40-144.158-64 .158-40 144z" fill="#ff8e26"/><path d="m384 72h64v32h-64z" fill="#ff8e26"/><path d="m344 296h144v128h-144z" fill="#d46109"/><rect fill="#ffd33a" height="48" rx="16" width="128" x="192" y="120"/><path d="m331.99 222.392-27.99-22.392v-32h-96v32l-27.99 22.392a32 32 0 0 0 -12.01 24.988v208.62a32 32 0 0 0 32 32h112a32 32 0 0 0 32-32v-208.62a32 32 0 0 0 -12.01-24.988z" fill="#ea9f26"/><path d="m200 248h112v192h-112z" fill="#ffd33a"/><circle cx="96" cy="368" fill="#c7312e" r="32"/><path d="m96 344a24.028 24.028 0 0 1 -24-24 8 8 0 0 1 16 0 8 8 0 0 0 16 0 8 8 0 0 1 16 0 24.028 24.028 0 0 1 -24 24z" fill="#248256"/><g fill="#ea9f26"><path d="m272 304h-32a8 8 0 0 1 0-16h32a8 8 0 0 1 0 16z"/><path d="m272 384h-32a8 8 0 0 1 0-16h32a8 8 0 0 1 0 16z"/><path d="m272 344h-32a8 8 0 0 1 0-16h32a8 8 0 0 1 0 16z"/></g><ellipse cx="416" cy="360" fill="#ff8e26" rx="32" ry="24"/></svg>