<?xml version="1.0" encoding="UTF-8" standalone="no"?>
<svg
   xmlns:dc="http://purl.org/dc/elements/1.1/"
   xmlns:cc="http://creativecommons.org/ns#"
   xmlns:rdf="http://www.w3.org/1999/02/22-rdf-syntax-ns#"
   xmlns:svg="http://www.w3.org/2000/svg"
   xmlns="http://www.w3.org/2000/svg"
   xmlns:sodipodi="http://sodipodi.sourceforge.net/DTD/sodipodi-0.dtd"
   xmlns:inkscape="http://www.inkscape.org/namespaces/inkscape"
   width="300mm"
   height="297mm"
   viewBox="0 0 300 297"
   version="1.1"
   id="svg8"
   inkscape:version="1.0.2 (e86c870879, 2021-01-15)"
   sodipodi:docname="soup.svg">
  <defs
     id="defs2" />
  <sodipodi:namedview
     id="base"
     pagecolor="#ffffff"
     bordercolor="#666666"
     borderopacity="1.0"
     inkscape:pageopacity="0.0"
     inkscape:pageshadow="2"
     inkscape:zoom="1.979899"
     inkscape:cx="584.74652"
     inkscape:cy="516.80214"
     inkscape:document-units="mm"
     inkscape:current-layer="layer1"
     inkscape:document-rotation="0"
     showgrid="false"
     units="px"
     inkscape:window-width="1519"
     inkscape:window-height="844"
     inkscape:window-x="2228"
     inkscape:window-y="201"
     inkscape:window-maximized="0" />
  <metadata
     id="metadata5">
    <rdf:RDF>
      <cc:Work
         rdf:about="">
        <dc:format>image/svg+xml</dc:format>
        <dc:type
           rdf:resource="http://purl.org/dc/dcmitype/StillImage" />
        <dc:title></dc:title>
      </cc:Work>
    </rdf:RDF>
  </metadata>
  <g
     inkscape:label="Layer 1"
     inkscape:groupmode="layer"
     id="layer1">
    <ellipse
       style="fill:#000000;stroke-width:0.981243"
       id="path342"
       cx="154.21489"
       cy="104.93005"
       rx="113.83907"
       ry="20.305286" />
    <ellipse
       style="fill:#999999;stroke-width:0.961158"
       id="path344"
       cx="150.75664"
       cy="170.19243"
       rx="113.66901"
       ry="82.064499" />
    <ellipse
       style="fill:#000000;stroke-width:1.00347"
       id="path346"
       cx="150.05223"
       cy="198.66734"
       rx="1.0204698"
       ry="15.537112" />
    <ellipse
       style="fill:#000000;stroke-width:1.00347"
       id="path348"
       cx="150.81332"
       cy="192.44391"
       rx="1.2472409"
       ry="0.38923872" />
    <ellipse
       style="fill:#000000;stroke-width:1.00347"
       id="path350"
       cx="173.60384"
       cy="193.3197"
       rx="7.4834447"
       ry="2.9517272" />
    <ellipse
       style="fill:#000000;stroke-width:1.00347"
       id="path352"
       cx="128.13623"
       cy="236.26572"
       rx="1.3606262"
       ry="1.0055333" />
    <ellipse
       style="fill:#000000;stroke-width:1.00347"
       id="path354"
       cx="117.53469"
       cy="232.50305"
       rx="0.39684936"
       ry="0.61629468" />
    <ellipse
       style="fill:#000000;stroke-width:1.00347"
       id="path356"
       cx="64.81041"
       cy="165.74861"
       rx="4.8188853"
       ry="23.905745" />
    <ellipse
       style="fill:#000000;stroke-width:1.00347"
       id="path358"
       cx="110.41648"
       cy="186.86832"
       rx="0.83410698"
       ry="10.245959" />
    <rect
       style="fill:#000000;stroke-width:1.11216"
       id="rect360"
       width="43.454475"
       height="13.493608"
       x="21.260509"
       y="113.49931" />
    <rect
       style="fill:#000000;stroke-width:1.00347"
       id="rect362"
       width="41.045559"
       height="14.596452"
       x="238.57707"
       y="115.76987" />
    <rect
       style="fill:#000000;stroke-width:1.00347"
       id="rect364"
       width="1.5873975"
       height="0.64873123"
       x="295.87479"
       y="180.90399" />
    <path
       style="fill:#000000;stroke-width:1.00347"
       id="path366"
       d="m 111.44409,31.819505 c -1.24987,-0.03032 -4.28177,-0.394138 -5.2177,0.882815 -1.02708,1.401319 -1.81544,3.137055 -2.28726,4.956117 -0.007,0.02605 0.43775,3.284654 0.5227,3.90963 0.19351,5.818476 3.32923,9.365595 6.3294,13.234535 1.01819,1.309006 2.19305,2.407941 3.1733,3.765845 0.0846,0.117173 0.3138,0.495253 0.23834,0.368435 -0.66257,-1.113824 -0.3412,-0.32215 -0.74738,-1.842687 -0.0181,-0.141632 0.0579,-0.414078 -0.0546,-0.424881 -0.11583,-0.01118 -0.0521,0.308146 -0.1388,0.406306 -0.0507,0.05744 -0.14797,-0.06935 -0.20331,-0.01923 -0.25873,0.234452 -0.44791,0.575 -0.69323,0.831679 -0.93024,0.973326 -1.29253,1.211418 -2.29476,2.018552 -1.36414,0.79193 -2.85778,1.09018 -4.28261,1.658475 -0.26943,0.10747 -0.61081,0.08634 -0.80061,0.352123 -0.95972,1.344049 -1.71007,2.907622 -2.5651,4.361431 0.35087,1.133595 0.31216,2.627586 1.05261,3.400787 0.0848,0.08856 4.93444,1.429041 5.43454,1.568639 0,0 0.93729,-1.918552 0.93729,-1.918552 v 0 c -0.29429,-0.63384 -0.84792,-1.166822 -0.88293,-1.90152 -0.0242,-0.51062 1.48728,-4.940648 1.20437,0.103156 -0.84057,1.309375 -1.73941,2.561632 -2.52174,3.928101 -0.0784,0.136803 0.24721,-0.126563 0.37421,-0.177068 0.35915,-0.142862 0.72254,-0.267882 1.08357,-0.402848 1.82156,-0.680893 3.66867,-1.295788 5.31212,-2.557849 2.83366,-2.417946 5.14242,-4.628868 6.47967,-8.793431 0.26846,-0.836105 0.26964,-2.186224 0.3084,-3.055918 -0.11768,-0.731041 -0.14834,-1.493792 -0.35307,-2.193122 -0.80817,-2.760751 -3.06837,-4.334335 -4.56931,-6.376987 -1.85131,-2.374182 -1.16271,-1.440454 -2.87471,-3.827659 -0.2149,-0.29965 -0.40895,-0.624869 -0.64049,-0.903747 -0.0721,-0.08688 -0.21759,-0.06895 -0.26132,-0.182411 -0.23031,-0.59756 -0.31531,-2.951303 -0.32555,-3.097583 -0.0899,-0.673323 -0.13152,-1.359967 -0.26957,-2.019963 -0.0225,-0.10841 -0.0332,0.228473 -0.0864,0.318051 -0.72202,1.218997 -1.37113,2.528556 -2.23056,3.593778 -0.18407,0.228132 -1.01239,0.210335 -0.76543,0.119633 0.25601,-0.09401 0.5265,-0.120415 0.79287,-0.129716 0.50041,-0.01744 1.00087,0.03287 1.5013,0.04952 0,0 0.32186,-10.002568 0.32186,-10.002568 z" />
    <path
       style="fill:#000000;stroke-width:1.00347"
       id="path368"
       d="m 141.3922,14.461403 c -2.55395,2.304949 -4.63671,5.00393 -5.42593,9.003062 -0.7312,3.705096 8.8e-4,7.707442 0.38303,11.396777 0.40788,3.316005 1.22174,5.942596 2.73537,8.686691 0.41449,0.751432 0.90974,1.425382 1.35926,2.143531 1.17234,1.872957 0.77566,1.17741 1.68304,2.999377 0.32626,1.099159 0.34583,0.675112 0.18736,1.658381 -0.0385,0.239191 -0.004,0.530347 -0.13203,0.713 -0.29081,0.416812 -0.58054,-0.247515 -0.81302,-0.203159 -0.34727,0.06631 -0.64669,0.348323 -0.97006,0.522456 -2.70552,1.469382 -6.25108,2.716149 -6.93836,7.083023 -0.56962,3.619225 0.96416,5.100732 2.4536,7.618044 2.59163,1.744502 3.0116,2.516569 6.10844,2.542631 1.20718,0.01028 2.39306,-0.40716 3.5896,-0.610757 0,0 0.40568,-3.080198 0.40568,-3.080198 v 0 c -0.72315,-0.612278 -1.49443,-1.141387 -2.16947,-1.836835 -0.90024,-0.927471 -1.58516,-2.122571 -2.2965,-3.264042 -0.12406,-0.02904 -0.29963,-0.217624 -0.37221,-0.08646 -0.20117,0.363437 -0.19283,0.854358 -0.28925,1.281534 -0.44743,0.612036 -0.89485,1.22407 -1.34228,1.836103 -0.15144,0.260069 0.38981,-0.422403 0.61147,-0.581402 0.61448,-0.440828 1.27153,-0.780002 1.88953,-1.212815 0.80585,-0.564375 1.58659,-1.184842 2.37989,-1.777266 1.84874,-1.759539 2.80205,-2.230046 3.83336,-5.064954 0.327,-0.898839 0.39756,-1.923541 0.47494,-2.908967 0.19901,-2.534263 -0.44875,-4.940085 -1.4399,-7.094014 -0.96552,-1.717987 -1.05843,-1.956689 -2.14018,-3.582206 -0.0585,-0.0878 -1.73944,-2.445743 -1.88044,-2.732251 -0.62097,-1.261804 -0.75385,-2.677947 -1.01941,-4.101259 -0.39299,-3.350141 -0.38559,-3.052189 -0.66163,-6.251832 -0.0453,-0.525257 -0.15052,-1.051421 -0.11757,-1.578161 0.13108,-2.0925 1.22237,-3.66693 2.28426,-5.139279 0,0 -2.37071,-6.378758 -2.37071,-6.378758 z" />
    <path
       style="fill:#000000;stroke-width:1.00347"
       id="path370"
       d="m 168.89325,24.792112 c -0.92181,0.586122 -1.9256,0.998769 -2.76541,1.758366 -0.9039,0.817549 -1.8075,1.734685 -2.4078,2.920667 -1.36917,2.704959 -1.82291,5.868279 -0.89058,8.931177 1.08009,3.548308 3.02566,5.531393 5.04106,8.08969 1.62628,2.125885 3.81753,3.574393 5.26264,5.943815 0.42194,0.691844 0.63601,1.108123 0.0408,1.400963 -0.51327,1.66991 -2.88058,2.963932 -3.39025,4.363091 -0.45794,1.257161 -0.66532,2.638602 -0.99797,3.957899 1.01011,1.742226 1.59656,4.059715 3.03033,5.226671 1.31657,1.071586 3.05978,0.991243 4.62301,1.002493 2.71154,0.01968 7.046,-1.424109 9.74902,-2.214286 0,0 -0.0473,-2.815962 -0.0473,-2.815962 v 0 c -4.21622,-1.074282 -4.15586,-0.892837 -8.2901,-2.626108 -0.57713,-0.241967 -1.28393,-1.455933 -1.68724,-0.878001 -0.48629,0.696823 0.25254,1.83525 0.37883,2.752873 -0.31236,0.750775 -0.65007,1.485368 -0.93708,2.252321 -0.0515,0.137652 0.14069,-0.249011 0.22699,-0.354856 0.45161,-0.553874 0.96004,-1.034071 1.38453,-1.621585 1.75657,-2.43111 3.01014,-5.119536 3.44235,-8.413016 -0.0627,-2.982601 0.19102,-3.480457 -0.89603,-6.190682 -1.46794,-3.659914 -4.43133,-5.843337 -6.73527,-8.51836 -0.40074,-0.478573 -2.20117,-2.697474 -2.93845,-3.400962 -0.11541,-0.110153 -0.25398,-0.180488 -0.3922,-0.233298 -0.15196,-0.05806 -0.47251,0.105548 -0.47003,-0.0962 0.0122,-0.982949 1.45729,-1.766888 1.8,-2.035339 0,0 -2.13384,-9.201404 -2.13384,-9.201404 z" />
    <rect
       style="fill:#000000;stroke-width:1.00347"
       id="rect374"
       width="139.57758"
       height="25.624838"
       x="82.143074"
       y="229.31752" />
    <rect
       style="fill:#000000;stroke-width:1.00347"
       id="rect376"
       width="2.3810959"
       height="9.601222"
       x="126.81696"
       y="234.35945" />
    <path
       style="fill:#ffffff;stroke-width:0.264999"
       id="path378"
       d="m 10.320729,58.180395 c -0.6493553,0.378069 -0.5159624,0.09869 -0.287094,0.883277 0,0 -0.5418239,0.481603 -0.5418239,0.481603 v 0 c 0.2680954,0.82088 0.03795,0.503293 0.6244959,0.99723 0,0 0.204422,-2.36211 0.204422,-2.36211 z" />
    <ellipse
       style="fill:#ffffff;stroke-width:0.499525"
       id="path435"
       ry="9.3492565"
       rx="88.096947"
       cy="110.23466"
       cx="199.0851"
       transform="matrix(0.99999181,0.00404784,-0.38817262,0.92158669,0,0)" />
    <path
       style="fill:#999999;stroke-width:4.04697"
       d="m 235.75549,696.70584 c -6.9827,-23.34255 -6.8191,-121.38754 0.23632,-141.6306 2.94473,-8.44884 7.4548,-14.6727 10.02239,-13.83079 18.94149,6.21087 17.36811,172.63399 -1.6321,172.63399 -1.91927,0 -5.80125,-7.72767 -8.62661,-17.1726 z"
       id="path447"
       transform="scale(0.26458333)" />
    <path
       style="fill:#999999;stroke-width:4.04697"
       d="m 237.73366,694.68554 c -5.62699,-26.53199 -3.91564,-131.09565 2.32516,-142.06747 5.27207,-9.2687 5.74486,-9.36911 9.8208,-2.08581 11.24319,20.09046 6.55797,159.30557 -5.36136,159.30557 -1.96408,0 -5.01715,-6.81853 -6.7846,-15.15229 z"
       id="path449"
       transform="scale(0.26458333)" />
    <path
       style="fill:#999999;stroke-width:4.04697"
       d="m 237.73366,694.68554 c -5.62699,-26.53199 -3.91564,-131.09565 2.32516,-142.06747 5.30076,-9.31913 5.72811,-9.40593 9.94698,-2.0203 11.19247,19.59372 6.38015,159.24006 -5.48754,159.24006 -1.96408,0 -5.01715,-6.81853 -6.7846,-15.15229 z"
       id="path451"
       transform="scale(0.26458333)" />
    <path
       style="fill:#999999;stroke-width:4.04697"
       d="m 237.73366,694.68554 c -1.76745,-8.33376 -3.21355,-42.60299 -3.21355,-76.15384 0,-46.85642 1.33504,-62.60942 5.75741,-67.93554 5.42539,-6.53412 5.99901,-6.51149 9.94698,0.3924 11.02442,19.27865 6.01071,158.84927 -5.70624,158.84927 -1.96408,0 -5.01715,-6.81853 -6.7846,-15.15229 z"
       id="path453"
       transform="scale(0.26458333)" />
    <path
       style="fill:#999999;stroke-width:1.43082"
       d="m 296.11416,881.20151 c -30.65904,-18.62146 -56.25855,-38.82317 -78.43401,-61.89574 -37.57055,-39.0905 -60.24361,-79.55745 -71.48148,-127.58036 -3.73538,-15.96246 -4.01298,-19.25774 -4.03156,-47.85714 -0.0173,-26.60053 0.41027,-32.67532 3.19215,-45.35576 8.56195,-39.02721 26.42827,-76.30706 52.03342,-108.57281 l 7.08545,-8.92858 h 20.59128 20.59128 V 461.15911 441.3071 l 4.87149,-4.27723 c 7.65304,-6.71946 31.79362,-23.50246 45.12851,-31.37422 l 12.14285,-7.1681 16.41552,3.36154 c 52.45954,10.74257 140.505,16.27125 259.29877,16.28225 87.53289,0.008 142.8492,-2.20068 199.28571,-7.95751 20.0941,-2.04971 47.69439,-5.74865 53.63078,-7.18749 3.38717,-0.82098 34.24625,19.166 53.15494,34.42767 l 11.78571,9.51255 v 23.43458 23.43458 l 22.4638,0.39341 22.46379,0.39342 9.56754,14.17584 c 39.24656,58.15006 51.8454,125.64471 35.51979,190.28696 -11.36736,45.00976 -36.12685,86.8384 -73.50227,124.17463 -19.67286,19.65223 -34.7568,32.03047 -57.22693,46.96182 -23.77559,15.79881 -22.14286,15.41794 -22.14286,5.1653 v -8.62169 H 574.23212 309.9464 v 10.71429 c 0,5.89285 -0.53673,10.71428 -1.19271,10.71428 -0.656,0 -6.34379,-3.12861 -12.63953,-6.95247 z M 569.1687,806.36827 c 0.54124,-1.76786 1.341,-19.60715 1.77722,-39.64286 0.66858,-30.70816 1.13818,-36.62876 2.99048,-37.70336 1.95299,-1.13301 1.95809,-1.45075 0.046,-2.85714 -1.52314,-1.12027 -2.56668,-6.27661 -3.5735,-17.65743 -1.34757,-15.23257 -2.26343,-19.02871 -4.13846,-17.15367 -2.29134,2.29133 -3.69168,35.7152 -3.00818,71.80017 0.72488,38.27029 1.39737,46.42857 3.82706,46.42857 0.60244,0 1.53818,-1.44643 2.07944,-3.21428 z m -149.60967,-65 c 1.40746,-5.04675 1.38479,-65.5283 -0.0266,-70.71429 -0.58802,-2.16071 -1.62674,-3.92857 -2.30827,-3.92857 -2.18859,0 -3.20642,12.4706 -3.20642,39.28571 0,26.81512 1.01783,39.28572 3.20642,39.28572 0.68153,0 1.73218,-1.76786 2.33478,-3.92857 z m 257.21476,-2.45459 c 15.19394,-6.29284 8.78168,-16.64996 -11.8457,-19.13326 -24.51596,-2.95144 -44.928,6.20503 -35.29867,15.83435 6.8572,6.8572 33.97187,8.75454 47.14437,3.29891 z m -423.68586,-30.3556 c 8.14161,-18.40546 12.62033,-66.5413 9.90143,-106.41751 -2.47841,-36.34927 -8.84621,-63.49904 -15.49136,-66.04902 -10.13671,-3.88982 -17.35046,19.26089 -20.56957,66.01286 -3.38952,49.22706 4.01331,106.29534 14.76543,113.82643 4.21572,2.9528 7.87357,0.58591 11.39407,-7.37276 z"
       id="path455"
       transform="scale(0.26458333)" />
    <path
       style="fill:#999999;stroke-width:1.43082"
       d="M 296.11416,881.20151 C 276.96121,869.56854 263.98709,860.40285 247.67082,846.9783 192.88143,801.89915 158.87179,749.25672 145.37655,688.64031 c -2.69003,-12.08277 -3.13536,-18.47317 -3.16987,-45.48633 -0.0378,-29.56938 0.19866,-32.44267 3.9966,-48.57143 8.81921,-37.45264 24.98212,-71.05172 48.93734,-101.72985 l 9.24658,-11.84158 h 20.63674 20.63675 v -20.36308 -20.36308 l 16.26615,-12.01104 c 8.94638,-6.60608 22.92852,-16.06087 31.07142,-21.01066 l 14.80528,-8.99961 8.57143,2.05849 c 21.97379,5.27714 66.23759,10.50974 121.42857,14.35456 44.27226,3.08417 192.11652,4.40887 244.28572,2.18881 61.68977,-2.6252 122.5589,-7.91333 149.04893,-12.94892 5.45335,-1.03665 8.50018,-0.98993 10.71428,0.16431 6.56847,3.42423 39.2814,26.28844 49.1524,34.35433 l 10.3701,8.47371 v 23.44339 23.44339 l 22.4638,0.39341 22.46379,0.39342 9.56754,14.17584 c 18.38764,27.24424 31.6118,58.39655 38.55486,90.82416 2.71383,12.67499 3.2164,19.42862 3.24241,43.57143 0.0331,30.81264 -1.78837,43.42257 -10.06517,69.67634 -14.8178,47.00163 -47.69284,94.09689 -91.12306,130.53863 -14.58878,12.24127 -39.1882,29.96106 -51.1756,36.86353 l -6.78571,3.90727 v -8.70717 -8.70717 H 574.23212 309.9464 v 10.71429 c 0,5.89285 -0.53673,10.71428 -1.19271,10.71428 -0.656,0 -6.34379,-3.12861 -12.63953,-6.95247 z M 569.1687,806.36827 c 0.54124,-1.76786 1.341,-19.60715 1.77722,-39.64286 0.66858,-30.70816 1.13818,-36.62876 2.99048,-37.70336 1.95922,-1.13663 1.96294,-1.44625 0.0343,-2.85714 -1.52806,-1.11783 -2.61119,-6.3355 -3.68959,-17.77351 -1.46674,-15.55692 -2.23364,-18.81469 -4.01073,-17.03759 -2.29134,2.29133 -3.69168,35.7152 -3.00818,71.80017 0.72488,38.27029 1.39737,46.42857 3.82705,46.42857 0.60245,0 1.53819,-1.44643 2.07945,-3.21428 z m -149.6491,-65 c 1.42653,-5.30597 1.4306,-62.56347 0.004,-69.28572 -0.6249,-2.94643 -1.66579,-5.35714 -2.31309,-5.35714 -2.16154,0 -2.94788,10.47934 -2.94788,39.28571 0,28.9512 0.78534,39.28572 2.9854,39.28572 0.66794,0 1.68972,-1.76786 2.27064,-3.92857 z m 257.25419,-2.50379 c 13.03851,-5.29518 10.0294,-14.6027 -5.96373,-18.44653 -6.23469,-1.49844 -24.22912,-1.19333 -30.58692,0.51866 -7.0603,1.90114 -13.13388,6.59267 -13.13388,10.14527 0,9.54912 32.71617,14.67379 49.68453,7.7826 z M 250.62183,713.51112 c 9.47819,-13.44458 15.43382,-68.42805 12.26299,-113.21428 -6.16336,-87.05426 -29.85413,-86.24754 -35.95216,1.22424 -3.11586,44.69467 2.68899,97.16597 12.38678,111.96666 2.74805,4.19406 8.35396,4.20566 11.30239,0.0234 z"
       id="path457"
       transform="scale(0.26458333)" />
    <path
       style="fill:#999999;stroke-width:1.43082"
       d="m 416.74557,739.58255 c -1.44862,-4.94672 -1.31638,-64.56596 0.14834,-66.87568 2.62624,-4.14135 3.91998,39.62279 1.80803,61.1614 -0.7009,7.1481 -1.15126,8.46355 -1.95637,5.71428 z"
       id="path459"
       transform="scale(0.26458333)" />
    <path
       style="fill:#999999;stroke-width:1.43082"
       d=""
       id="path461"
       transform="scale(0.26458333)" />
    <path
       style="fill:#999999;stroke-width:1.43082"
       d=""
       id="path463"
       transform="scale(0.26458333)" />
    <path
       style="fill:#999999;stroke-width:1.43082"
       d=""
       id="path465"
       transform="scale(0.26458333)" />
    <path
       style="fill:#999999;stroke-width:1.43082"
       d=""
       id="path467"
       transform="scale(0.26458333)" />
    <path
       style="fill:#999999;stroke-width:1.43082"
       d="m 296.11416,881.20151 c -28.86275,-17.53044 -47.6804,-31.92521 -70.25518,-53.7425 -42.33873,-40.91804 -69.03386,-86.844 -80.33332,-138.20443 -3.74473,-17.02127 -5.23263,-56.39248 -2.82197,-74.67203 5.75332,-43.62627 25.08035,-87.64144 55.04423,-125.35714 l 6.52597,-8.21429 h 20.6934 20.6934 v -20.36308 -20.36308 l 16.26615,-12.01104 c 8.94638,-6.60608 22.92852,-16.03002 31.07142,-20.94209 l 14.80528,-8.93105 15.71429,3.25238 c 25.87846,5.35606 68.62001,10.03223 125,13.67571 37.67741,2.43486 186.5293,3.4282 231.42857,1.54441 61.35993,-2.57442 105.79754,-6.20682 141.3561,-11.55466 13.20797,-1.98642 18.53859,-2.27838 20.71429,-1.13452 7.45455,3.91918 34.2238,22.51573 46.1439,32.05609 l 13.21428,10.57617 v 23.48968 23.48968 l 22.4638,0.39341 22.46379,0.39342 9.56754,14.17584 c 18.87543,27.96697 33.38189,62.83825 39.26859,94.39559 4.01754,21.53719 3.66655,63.22432 -0.70365,83.57143 -11.65845,54.2804 -39.0208,101.41867 -83.32121,143.54104 -16.09501,15.3037 -40.00803,33.83516 -59.02457,45.74127 l -12.85714,8.04976 -0.42532,-8.66603 -0.4253,-8.66604 H 574.16394 309.9464 v 10.71429 c 0,5.89285 -0.53673,10.71428 -1.19271,10.71428 -0.656,0 -6.34379,-3.12861 -12.63953,-6.95247 z m 273.01811,-74.83324 c 0.52122,-1.76786 1.3276,-19.60715 1.79195,-39.64286 0.70815,-30.55504 1.19618,-36.63411 3.0269,-37.70336 1.94741,-1.1374 1.94951,-1.44531 0.0196,-2.85714 -1.52806,-1.11783 -2.61119,-6.3355 -3.68959,-17.77351 -1.47063,-15.59808 -2.23227,-18.81605 -4.02838,-17.01993 -2.23692,2.23691 -3.65729,37.00317 -2.96186,72.4968 0.73888,37.71131 1.40384,45.71428 3.79838,45.71428 0.60245,0 1.52179,-1.44643 2.04302,-3.21428 z m -149.62137,-65 c 1.41412,-5.30357 1.36672,-62.51442 -0.0576,-69.47179 -0.87171,-4.2582 -1.52564,-5.15284 -2.82086,-3.85926 -1.9308,1.92839 -3.28594,57.0922 -1.71198,69.68975 1.03363,8.27293 2.9501,9.79314 4.59041,3.6413 z m 250.50986,-0.50655 c 4.26233,-0.91411 9.18078,-3.20677 11.69086,-5.44951 3.77657,-3.37437 4.11945,-4.27054 2.67011,-6.97867 -2.95327,-5.51823 -9.83937,-7.932 -24.43533,-8.56524 -14.83016,-0.64342 -23.288,0.96597 -29.09921,5.53707 -7.23359,5.68994 -3.33903,11.3748 10.31153,15.05167 8.43084,2.27088 19.44041,2.42526 28.86204,0.40468 z M 252.46629,709.49861 c 12.99719,-26.17183 14.89901,-119.54174 3.20602,-157.39926 -3.02323,-9.78808 -7.5009,-16.80251 -10.72591,-16.80251 -5.22366,0 -10.73801,12.69148 -14.29779,32.90691 -8.54759,48.54047 -3.8905,126.11297 8.72734,145.37025 3.61836,5.52231 9.18462,3.78938 13.09034,-4.07539 z"
       id="path469"
       transform="scale(0.26458333)" />
    <path
       style="fill:#999999;stroke-width:1.43082"
       d="m 311.37497,914.58255 v -47.85714 h 262.85715 262.85714 v 47.85714 47.85715 H 574.23212 311.37497 Z"
       id="path471"
       transform="scale(0.26458333)" />
    <path
       style="fill:#999999;stroke-width:1.43082"
       d="m 311.08749,914.22541 c -0.15813,-26.51786 -0.5066,-43.23214 -0.77439,-37.14286 -0.26778,6.08929 -0.89,11.07143 -1.38271,11.07143 -3.60922,0 -39.33527,-23.36033 -56.85544,-37.1763 -14.28924,-11.26811 -38.15692,-34.46478 -49.94208,-48.53798 -27.81036,-33.20966 -48.19516,-74.00606 -56.74839,-113.57143 -3.6053,-16.67735 -5.03895,-56.40429 -2.68079,-74.28572 5.75332,-43.62627 25.08035,-87.64144 55.04423,-125.35714 l 6.52597,-8.21429 h 20.6934 20.6934 V 460.54864 440.08616 L 262.4464,427.8413 c 9.23214,-6.73468 23.21429,-16.13882 31.07143,-20.89808 l 14.28571,-8.65322 12.85715,2.79925 c 76.15577,16.58057 281.99964,22.39721 425.71428,12.02963 29.56882,-2.13309 69.69173,-6.51701 84.95647,-9.28253 7.58693,-1.37453 8.06358,-1.26305 16.42858,3.84245 12.27841,7.49402 31.19395,20.95736 43.25781,30.78923 l 10.35714,8.44091 v 23.44339 23.44339 l 22.4638,0.39341 22.46379,0.39342 9.66387,14.28572 c 18.74977,27.71708 33.2773,62.68413 39.17226,94.28571 3.98844,21.38119 3.68138,61.55767 -0.63573,83.18252 -13.9802,70.02801 -59.43742,133.23657 -130.98513,182.13565 -8.64286,5.90695 -17.77289,11.78819 -20.28894,13.06942 l -4.57465,2.32953 -0.50724,-8.92999 c -0.27897,-4.91149 -0.6311,12.76644 -0.78248,39.2843 l -0.27526,48.21429 H 574.23212 311.37497 Z m 257.9955,-107.85714 c 0.4941,-1.76786 1.30627,-19.60715 1.8048,-39.64286 0.75657,-30.40647 1.2651,-36.63931 3.07618,-37.70336 1.92623,-1.13168 1.92927,-1.4524 0.0272,-2.85714 -1.47705,-1.09079 -2.62699,-6.39409 -3.70169,-17.07131 -2.34837,-23.33126 -4.18443,-23.11939 -6.32831,0.73025 -1.44898,16.11907 -0.5842,88.09297 1.15141,95.83013 1.06814,4.76164 2.75446,5.06502 3.97049,0.71429 z M 420.38314,708.15398 c 0.13315,-32.6593 -0.83632,-43.02788 -3.75067,-40.11614 -2.00357,2.00178 -2.43358,70.50048 -0.47155,75.11614 2.732,6.42704 4.09961,-4.90973 4.22222,-35 z m 249.78353,32.67644 c 4.91387,-1.05382 8.93395,-3.03944 11.64746,-5.75295 3.8342,-3.8342 3.98691,-4.38089 2.04461,-7.3193 -3.43784,-5.20102 -13.07457,-8.01843 -27.48377,-8.03522 -13.3684,-0.0156 -21.68613,1.99632 -26.58603,6.43066 -10.89912,9.86359 16.45648,19.80701 40.37773,14.67681 z M 252.32071,709.58255 c 13.7809,-27.3534 14.89914,-127.10211 1.81686,-162.06764 -9.18625,-24.55243 -19.76088,-9.90985 -25.73796,35.63907 -2.16,16.46046 -2.15348,70.41389 0.0106,87.14286 2.30923,17.85164 6.81206,36.3802 10.1917,41.93758 4.19408,6.8966 9.41689,5.88703 13.71887,-2.65187 z"
       id="path473"
       transform="scale(0.26458333)" />
    <path
       style="fill:#999999;stroke-width:1.43082"
       d="m 639.8369,738.88995 c -7.32399,-2.3598 -12.07898,-6.69512 -10.85154,-9.89378 2.48795,-6.48349 28.95985,-10.51656 43.07953,-6.5633 12.1269,3.39532 13.54726,9.07253 3.71132,14.83422 -6.20291,3.63353 -26.81078,4.56409 -35.93931,1.62286 z"
       id="path479"
       transform="scale(0.26458333)" />
    <path
       style="fill:#999999;stroke-width:2.02349"
       d="m 240.04729,704.91657 c -4.69461,-11.08593 -6.64377,-25.46649 -8.10617,-59.80564 -2.23162,-52.40145 4.24265,-102.32384 13.27003,-102.32384 3.45652,0 7.4459,11.51907 10.1455,29.29442 3.06834,20.20331 3.11428,83.0016 0.0781,106.71778 -2.30641,18.01559 -7.14808,33.69343 -10.4053,33.69343 -0.97561,0 -3.21757,-3.40927 -4.98213,-7.57615 z"
       id="path485"
       transform="scale(0.26458333)" />
    <path
       style="fill:#999999;stroke-width:2.02349"
       d="m 311.56841,918.05876 c -0.17783,-23.61231 -0.69,-39.97679 -1.13815,-36.36549 -0.44816,3.61129 -1.48701,6.56599 -2.30855,6.56599 -0.82155,0 -10.99174,-6.20205 -22.60043,-13.78234 -77.36697,-50.51936 -125.21082,-114.47436 -140.30554,-187.55258 -4.3873,-21.24025 -4.37608,-65.1277 0.0221,-86.55855 8.1974,-39.94302 26.73336,-79.02195 52.94461,-111.62186 l 6.90362,-8.5863 h 20.0678 20.06779 V 460.30412 440.4506 l 19.69797,-14.13504 c 30.80608,-22.10609 40.56957,-27.49081 47.80462,-26.36498 3.4312,0.53393 18.5119,2.87114 33.51266,5.19381 53.2766,8.24918 96.80274,10.69934 209.86897,11.81386 127.44281,1.25623 185.54747,-1.18818 258.9597,-10.8942 l 25.37168,-3.35445 13.01411,8.69281 c 7.15776,4.78104 20.96905,14.6485 30.69177,21.92768 l 17.67767,13.23488 v 23.8674 23.8674 h 22.26867 22.26867 l 11.20795,17.1945 c 39.44722,60.51739 50.6694,128.93019 31.94088,194.71881 -6.73614,23.66246 -26.2157,62.21257 -42.04873,83.21459 -23.37729,31.00924 -60.83888,64.96877 -96.51811,87.49521 l -11.48471,7.25102 -0.83948,-5.53347 c -0.46172,-3.04339 -0.97571,14.24028 -1.1422,38.40818 l -0.3027,43.94163 H 574.5314 311.89174 Z M 570.45254,778.15263 c 0.13516,-13.33401 0.93371,-30.43452 1.77454,-38.00113 0.84085,-7.56661 0.79416,-14.21151 -0.10385,-14.76645 -0.8979,-0.55494 -1.72317,-6.18286 -1.83393,-12.50649 -0.11071,-6.32364 -0.89475,-13.77036 -1.74221,-16.54828 -1.46454,-4.80069 -1.62962,-4.85071 -3.33415,-1.01016 -2.23918,5.04519 -2.21348,105.60155 0.0283,111.11678 l 1.64244,4.04061 1.66146,-4.04061 c 0.91381,-2.22233 1.77205,-14.95025 1.90721,-28.28427 z m -149.7256,-69.70052 c 0.23242,-27.07324 -1.19955,-40.99036 -4.03717,-39.23661 -2.14583,1.32621 -2.38154,72.28431 -0.24725,74.43582 2.62905,2.65027 4.06045,-9.10962 4.28442,-35.19921 z m 248.45882,32.20047 c 5.50022,-1.17958 11.62431,-3.93909 13.60908,-6.13221 3.47048,-3.83485 3.45735,-4.1388 -0.34299,-7.93916 -9.0703,-9.07028 -43.14082,-9.05537 -52.21905,0.0228 -3.76502,3.76502 -3.77974,4.09345 -0.35337,7.87956 6.54644,7.23372 22.59611,9.75264 39.30633,6.16894 z M 252.18213,709.40999 c 7.65903,-16.14021 9.94091,-34.65298 10.07895,-81.77009 0.10754,-36.70495 -0.57343,-48.7353 -3.53689,-62.48488 -8.22956,-38.18261 -18.45671,-39.00669 -27.10979,-2.18443 -5.10934,21.74223 -5.09873,107.65951 0.0157,127.88381 6.60682,26.12525 13.85466,32.66908 20.55194,18.55559 z"
       id="path487"
       transform="scale(0.26458333)" />
    <path
       style="fill:#999999;stroke-width:2.02349"
       d="m 311.61661,920.07907 c -0.15132,-22.50115 -0.66912,-38.86562 -1.15067,-36.3655 -0.48155,2.50013 -1.54208,4.54569 -2.35674,4.54569 -2.9088,0 -43.96973,-27.78689 -58.99641,-39.92422 -32.60445,-26.33526 -66.10854,-66.62412 -82.60604,-99.33422 -7.92859,-15.72025 -17.43253,-43.39637 -21.25181,-61.88671 -4.35462,-21.08205 -4.35514,-65.48928 -0.001,-86.77435 8.15355,-39.85848 26.71403,-78.99187 52.92854,-111.59583 l 6.90362,-8.5863 h 20.0678 20.06779 V 460.30412 440.4506 l 19.69797,-14.13504 c 10.83389,-7.77427 24.6921,-17.15061 30.79603,-20.83631 l 11.09806,-6.70126 27.16021,4.45666 c 61.22215,10.04583 136.29262,14.23112 255.70975,14.2562 101.10928,0.0212 155.59666,-2.74387 224.42468,-11.38901 l 26.4348,-3.32033 12.96115,8.65685 c 7.12864,4.76127 20.91611,14.61255 30.63883,21.89173 l 17.67767,13.23488 v 23.8674 23.8674 h 22.26867 22.26867 l 10.82078,16.66752 c 50.20174,77.32712 54.75754,162.33773 12.98094,242.22375 -23.29735,44.54958 -59.8198,83.3734 -111.7299,118.7702 -15.69478,10.70206 -18.31206,11.88392 -19.43707,8.77687 -0.71503,-1.97479 -1.28374,4.13714 -1.26378,13.58207 0.0202,9.44492 -0.0974,28.30952 -0.2609,41.92133 l -0.29717,24.74873 H 574.5314 311.89174 Z M 570.64912,773.31196 c 0.19253,-14.00514 0.98736,-30.28049 1.76637,-36.16744 0.77901,-5.88695 0.66464,-11.16814 -0.25415,-11.73599 -0.91882,-0.56785 -1.77811,-5.75177 -1.90958,-11.51982 -0.34623,-15.1908 -2.36157,-23.42512 -4.79188,-19.57874 -2.38442,3.77377 -2.35393,109.36047 0.0327,113.22212 2.98961,4.83726 4.78332,-7.06634 5.15655,-34.22013 z M 420.87178,708.22901 c 0.13233,-24.3586 -1.6134,-40.60099 -4.19242,-39.00709 -2.13879,1.32187 -2.36464,72.28686 -0.23684,74.42334 2.4471,2.45703 4.3042,-12.39241 4.42926,-35.41625 z m 256.74108,29.49378 c 8.07061,-4.17348 9.13626,-6.84429 4.55771,-11.42284 -8.17256,-8.17256 -43.51206,-8.12159 -51.70822,0.0746 -4.02271,4.02269 -4.03901,4.29016 -0.49988,8.20084 7.31922,8.08764 34.61102,9.89034 47.65039,3.14741 z m -427.83467,-24.725 c 15.15875,-16.947 18.3486,-121.86968 4.92543,-162.01041 -8.66829,-25.9217 -18.64262,-16.09792 -24.86382,24.48852 -4.05528,26.45617 -2.77133,96.59797 2.13087,116.40886 5.61966,22.71035 10.84121,28.90115 17.80752,21.11303 z"
       id="path489"
       transform="scale(0.26458333)" />
    <path
       style="fill:#999999;stroke-width:2.02349"
       d="m 311.8608,922.09937 c -0.019,-23.83841 -0.73465,-37.77902 -1.84912,-36.01818 -1.46795,2.31935 -5.17418,0.76273 -19.24075,-8.08122 -28.82545,-18.12313 -43.33865,-29.77085 -68.91308,-55.3069 -42.03908,-41.97598 -66.04695,-84.47427 -76.6101,-135.61377 -4.72682,-22.88398 -4.38736,-67.68374 0.6885,-90.86434 8.1356,-37.15397 25.95529,-74.30025 50.58647,-105.45073 l 8.3868,-10.6066 h 20.15608 20.15607 v -20.11197 -20.11197 l 19.69797,-13.82817 c 10.83389,-7.60549 24.54928,-16.88289 30.47864,-20.61643 l 10.78067,-6.78827 27.60513,4.45052 c 68.70335,11.07642 158.40841,15.33957 289.23464,13.74562 94.87339,-1.15592 116.00786,-2.29337 180.07406,-9.69153 l 37.64252,-4.34684 15.89556,10.61137 c 8.74255,5.83625 22.48678,15.62689 30.54275,21.75698 l 14.64721,11.14561 v 23.96361 23.96361 h 22.26867 22.26867 l 10.81765,16.66752 c 26.256,40.45445 38.54479,76.79496 40.82,120.71322 3.98729,76.96684 -31.39898,150.94952 -101.22575,211.63424 -17.99504,15.63906 -55.98061,41.46904 -57.46176,39.07371 -0.61989,-1.00254 -1.24279,8.77236 -1.38419,21.72197 -0.14142,12.94963 -0.36871,31.04516 -0.50508,40.2123 l -0.24797,16.66751 H 574.5314 311.89174 Z M 570.78656,754.91912 c 0.55647,-44.02109 -1.21437,-66.11614 -4.78725,-59.73171 -2.34271,4.18615 -2.55803,109.0256 -0.23167,112.78973 2.94647,4.76748 4.49487,-11.60172 5.01892,-53.05802 z m -151.0831,-21.49517 c 2.85259,-20.81193 0.55724,-68.64108 -3.02313,-62.99437 -2.24431,3.53956 -2.25128,72.36771 -0.008,72.36771 0.96013,0 2.32384,-4.21801 3.03046,-9.37334 z m 258.12375,4.16043 c 8.29736,-4.24765 8.68548,-8.44643 1.21281,-13.12034 -5.55111,-3.47204 -9.30233,-3.99094 -25.15878,-3.4802 -16.17541,0.52103 -19.23449,1.20022 -23.1774,5.14594 l -4.54241,4.54568 4.07521,4.07522 c 7.78064,7.78066 34.78614,9.38864 47.59057,2.8337 z M 249.86882,712.9387 c 8.53773,-9.43408 14.77986,-59.73499 12.84323,-103.49447 -2.58175,-58.33637 -14.69112,-88.7356 -25.54654,-64.13176 -6.98868,15.83987 -9.11678,34.83815 -9.10879,81.31728 0.008,46.46704 2.14334,65.53007 9.10879,81.31728 4.0907,9.27159 7.5868,10.64535 12.70331,4.99167 z"
       id="path491"
       transform="scale(0.26458333)" />
    <path
       style="fill:#999999;stroke-width:2.02349"
       d="m 311.89174,923.678 c 0,-30.31603 -0.50652,-37.11786 -2.70135,-36.27563 -3.22605,1.23796 -41.04241,-23.31162 -60.93826,-39.5598 -54.29209,-44.3383 -92.1779,-103.61379 -103.29512,-161.61382 -3.48436,-18.17838 -3.89633,-62.19473 -0.76581,-81.82235 5.74657,-36.02965 26.58249,-81.31695 52.28483,-113.64217 l 8.43349,-10.6066 h 20.15608 20.15607 v -19.96326 -19.96326 l 7.57614,-5.79563 c 4.16688,-3.1876 17.57666,-12.4691 29.7995,-20.62557 20.392,-13.60786 22.88931,-14.74458 30.30458,-13.79402 4.44467,0.56976 20.80914,2.87609 36.36549,5.12517 59.00861,8.53127 131.7065,12.29009 238.396,12.32617 96.73461,0.0327 157.02191,-3.02717 225.30519,-11.43534 l 27.31529,-3.36352 12.08066,7.70988 c 6.64436,4.24044 20.49018,14.0494 30.76848,21.79771 l 18.68782,14.08783 v 24.01799 24.01799 h 22.26867 22.26867 l 11.20702,17.19308 c 79.61472,122.13978 41.00528,266.03323 -96.15046,358.34299 l -23.23351,15.63681 -0.25658,24.12174 c -0.14101,13.26696 -0.3684,30.25841 -0.50507,37.75879 l -0.2485,13.63706 H 574.5314 311.89174 Z m 258.7373,-169.76903 c 0.46004,-40.49315 -1.04955,-60.52286 -4.40516,-58.44898 -2.12857,1.31552 -2.4498,105.9448 -0.34177,111.31675 2.67567,6.81855 4.27064,-10.9449 4.74693,-52.86777 z M 417.95775,706.62472 c 0,-19.89491 -0.68185,-35.75116 -1.51523,-35.2361 -3.04262,1.88044 -1.73122,71.40867 1.34688,71.40867 0.0925,0 0.16829,-16.27765 0.16829,-36.17257 z m 258.66395,31.22491 c 4.84426,-2.02409 7.00617,-4.23781 7.00617,-7.17417 0,-9.51101 -33.59587,-14.06958 -48.36701,-6.56286 -9.35434,4.75392 -9.77092,7.68619 -1.78375,12.5558 8.24788,5.02854 32.3569,5.68861 43.14459,1.18123 z M 420.46089,694.81505 c -0.40093,-6.38922 -0.72897,-1.16168 -0.72897,11.61675 0,12.77843 0.32804,18.00597 0.72897,11.61676 0.40093,-6.38922 0.40093,-16.8443 0,-23.23351 z m -168.62832,14.18977 c 15.33359,-26.25473 14.31459,-143.28352 -1.4572,-167.35432 -6.9912,-10.66991 -12.37512,-4.18578 -18.55752,22.34979 -5.14398,22.0785 -5.18017,103.22335 -0.0561,125.84255 6.07728,26.82708 12.18732,32.66045 20.07085,19.16198 z"
       id="path493"
       transform="scale(0.26458333)" />
    <path
       style="fill:#999999;stroke-width:0.357705"
       d="m 566.25025,806.82999 c -1.11006,-3.18432 -1.2767,-10.10889 -1.27017,-52.78022 0.007,-46.96612 0.36173,-58.89963 1.73733,-58.47665 1.36125,0.41857 2.39478,5.59501 3.08295,15.44093 0.97238,13.91231 0.75422,59.71045 -0.38085,79.95178 -0.56451,10.06673 -1.57771,17.01251 -2.48168,17.01251 -0.15799,0 -0.46741,-0.51676 -0.68758,-1.14835 z"
       id="path495"
       transform="scale(0.26458333)" />
    <path
       style="fill:#999999;stroke-width:0.357705"
       d="m 566.25986,806.10334 c -0.93156,-3.468 -1.17221,-18.23942 -0.98188,-60.26786 0.18291,-40.38821 0.40172,-48.88472 1.28162,-49.76462 0.86309,-0.8631 2.09092,4.268 2.89208,12.08605 1.02065,9.96002 0.7509,69.74603 -0.38528,85.38819 -0.59592,8.20436 -1.48058,14.0761 -2.12075,14.0761 -0.15294,0 -0.46155,-0.68304 -0.68579,-1.51786 z"
       id="path497"
       transform="scale(0.26458333)" />
    <path
       style="fill:#999999;stroke-width:0.357705"
       d="m 566.27572,806.28191 c -0.94038,-2.96473 -1.19579,-18.43841 -1.00066,-60.625 0.18595,-40.202 0.40629,-48.7078 1.28454,-49.58605 0.86309,-0.8631 2.09092,4.268 2.89208,12.08605 1.02293,9.98225 0.74164,70.85491 -0.39608,85.71429 -0.61265,8.00157 -1.48786,13.75 -2.09347,13.75 -0.14388,0 -0.45276,-0.60268 -0.68641,-1.33929 z"
       id="path499"
       transform="scale(0.26458333)" />
    <path
       style="fill:#999999;stroke-width:0.357705"
       d="m 566.27733,806.28191 c -0.94891,-3.00297 -1.19456,-17.78776 -1.00134,-60.26786 0.1845,-40.56278 0.40296,-49.06254 1.28361,-49.94319 0.24436,-0.24436 0.53558,0.054 0.89694,0.91884 0.80343,1.92287 1.17848,3.89379 1.82242,9.57689 1.20281,10.6155 1.04913,70.68512 -0.22336,87.30461 -0.61265,8.00157 -1.48786,13.75 -2.09347,13.75 -0.14388,0 -0.45204,-0.60268 -0.6848,-1.33929 z"
       id="path501"
       transform="scale(0.26458333)" />
    <path
       style="fill:#999999;stroke-width:0.357705"
       d="m 566.23338,806.28191 c -0.90669,-3.18814 -1.14794,-18.375 -0.95739,-60.26786 0.1845,-40.56278 0.40296,-49.06254 1.28361,-49.94319 0.24436,-0.24436 0.53558,0.054 0.89694,0.91884 0.80952,1.93745 1.18146,3.90886 1.87611,9.94403 0.56315,4.89279 0.63327,9.1636 0.62698,38.18747 -0.005,21.24818 -0.16331,35.6767 -0.45374,41.25 -0.64174,12.31499 -1.7323,21.25 -2.59367,21.25 -0.16387,0 -0.46935,-0.60268 -0.67884,-1.33929 z"
       id="path503"
       transform="scale(0.26458333)" />
    <path
       style="fill:#999999;stroke-width:0.357705"
       d="m 566.21798,806.17196 c -0.75856,-2.8171 -1.04252,-15.14984 -1.05412,-45.78291 -0.008,-20.40884 -0.13362,-30.98214 -0.36888,-30.98214 -0.43447,0 -0.48215,-2.39187 -0.051,-2.55952 0.16837,-0.0655 0.48799,-6.46727 0.71027,-14.22619 0.39503,-13.78906 0.62404,-16.66177 1.31967,-16.55417 1.32322,0.20469 2.53317,8.05514 3.07323,19.93981 0.46352,10.20058 0.17757,60.98265 -0.40427,71.79293 -0.61002,11.33396 -1.69492,19.82143 -2.53366,19.82143 -0.16554,0 -0.47659,-0.65216 -0.69122,-1.44924 z"
       id="path505"
       transform="scale(0.26458333)" />
    <path
       style="fill:#999999;stroke-width:0.357705"
       d="m 420.18031,704.91286 c 0.0171,-0.41605 0.10177,-0.50068 0.21578,-0.21577 0.10317,0.25781 0.0905,0.56585 -0.0282,0.68452 -0.11867,0.11868 -0.20308,-0.0923 -0.18758,-0.46875 z"
       id="path507"
       transform="scale(0.26458333)" />
    <ellipse
       style="fill:#999999;stroke-width:0.264999"
       id="path509"
       cx="130.40178"
       cy="173.68007"
       rx="77.10714"
       ry="36.85268" />
    <ellipse
       style="fill:#999999;stroke-width:0.264999"
       id="path511"
       cx="72.949409"
       cy="153.64732"
       rx="16.630953"
       ry="17.953869" />
    <path
       style="fill:#999999;stroke-width:0.378571"
       d="m 238.74706,124.03283 v -6.17887 l -3.30729,-2.62151 c -4.01248,-3.18048 -6.47416,-4.93568 -9.99742,-7.12827 -2.61418,-1.62685 -2.6499,-1.66995 -1.58298,-1.90972 5.28083,-1.18678 8.93052,-2.65853 9.35851,-3.77386 0.32598,-0.84949 -0.3479,-1.96192 -1.56908,-2.59023 -4.00492,-2.060575 -15.25121,-3.976896 -31.26633,-5.327655 -5.30716,-0.447619 -8.09214,-0.899171 -12.6622,-2.053016 -24.2027,-6.110692 -51.14423,-5.970738 -75.50747,0.392242 -6.69339,1.748121 -7.49228,1.891247 -16.718717,2.995263 -15.737805,1.883148 -22.798621,4.504046 -19.696735,7.311216 0.392692,0.35537 1.47371,0.93453 2.402266,1.287 0.928557,0.35247 1.75537,0.75972 1.837362,0.90498 0.08199,0.14527 -1.354849,1.17716 -3.192973,2.29308 -1.838124,1.11593 -5.367477,3.5275 -7.843006,5.35904 l -4.500959,3.33009 10e-7,5.24365 10e-7,5.24365 H 42.955397 21.410755 l -1e-6,-6.61458 -1e-6,-6.61458 h 15.021899 15.021901 l -3.799658,-1.86406 c -6.458686,-3.16853 -8.394148,-6.21034 -5.972078,-9.38584 5.269464,-6.908621 30.593136,-12.893599 66.662453,-15.754951 26.48538,-2.101064 60.21616,-2.249395 86.74554,-0.381466 36.77717,2.589477 63.34528,8.245771 70.6307,15.037127 2.7594,2.57226 2.79183,4.67888 0.11155,7.2464 -2.12788,2.03836 -6.12236,4.07567 -11.48677,5.85863 l -4.44893,1.47867 14.83557,0.0167 14.83555,0.0167 10e-6,7.18155 v 7.18154 h -20.41071 -20.41072 z"
       id="path513" />
    <path
       style="fill:#999999;stroke-width:1.43082"
       d="m 399.89538,265.21294 c -8.93096,-2.8269 -9.92217,-3.74333 -11.05076,-10.21709 -0.70806,-4.06155 0.008,-6.43831 3.81741,-12.66326 4.18247,-6.83533 5.66789,-8.02974 13.74901,-11.05543 10.15842,-3.80346 20.22577,-11.04453 20.22577,-14.54763 0,-1.27157 -1.86655,-4.27112 -4.1479,-6.66567 -7.66604,-8.04643 -19.91838,-26.45877 -22.8875,-34.39444 -1.61915,-4.32757 -3.64089,-13.80306 -4.49276,-21.05665 -1.42358,-12.12158 -1.31211,-13.73923 1.37808,-19.99886 4.54778,-10.58191 8.64959,-13.90377 17.16824,-13.90377 h 7.14803 l -0.87479,14.35914 c -0.72056,11.82745 -0.52515,14.28322 1.10835,13.92857 1.41384,-0.30696 2.19677,1.62301 2.72727,6.72289 0.77522,7.45256 5.16806,14.28915 21.56442,33.56083 9.3776,11.02207 11.31093,15.47266 11.29461,26.00048 -0.0187,12.02665 -4.5689,21.55908 -16.04118,33.60504 -6.61795,6.94889 -11.61482,10.63742 -19.20838,14.17903 -11.56921,5.39585 -11.29875,5.36882 -21.47792,2.14682 z m 16.47271,-13.79134 c 0.38701,-6.01281 0.16445,-6.68905 -1.69389,-5.14676 -2.49559,2.07115 -4.39211,9.38616 -3.01232,11.61871 2.0172,3.2639 4.27983,0.15235 4.70621,-6.47195 z m -1.54675,-93.00313 c -0.4747,-0.4747 -1.70685,-0.52545 -2.7381,-0.11279 -1.13962,0.45604 -0.80111,0.79455 0.8631,0.8631 1.50595,0.062 2.3497,-0.27561 1.875,-0.75031 z"
       id="path515"
       transform="scale(0.26458333)" />
    <path
       style="fill:#999999;stroke-width:1.43082"
       d="m 530.20137,257.95511 c -12.37936,-2.96047 -23.61372,-16.34477 -24.69843,-29.42499 -0.83143,-10.02588 1.57457,-16.59504 8.30513,-22.67568 5.7892,-5.2302 18.36737,-12.28716 21.90035,-12.28716 2.97597,0 3.90662,-5.51808 1.78474,-10.58224 -1.01808,-2.42977 -4.22779,-8.12884 -7.1327,-12.6646 -11.65075,-18.1916 -15.66349,-34.62004 -15.78527,-64.62599 -0.0803,-19.796343 -0.0304,-20.117283 4.55846,-29.285718 4.5206,-9.032075 11.92105,-18.555738 14.4189,-18.555738 0.68295,0 2.92863,4.569078 4.9904,10.153506 l 3.74867,10.153507 -3.40163,5.917922 c -5.06484,8.811468 -5.44656,12.959133 -3.06967,33.354301 2.52892,21.6996 3.09234,23.44182 11.83251,36.58892 9.96612,14.99117 13.19559,23.96777 13.23579,36.78997 0.0446,14.22386 -4.46657,23.60093 -15.68038,32.59382 -4.32142,3.46555 -8.06568,6.83115 -8.32057,7.47913 -0.25489,0.64795 2.85408,4.49564 6.90884,8.55038 6.67749,6.6775 7.28868,7.81789 6.48523,12.10062 -0.51131,2.72551 -1.92496,5.01214 -3.33741,5.39838 -5.66822,1.54999 -12.73147,1.98099 -16.74296,1.02166 z"
       id="path517"
       transform="scale(0.26458333)" />
    <path
       style="fill:#999999;stroke-width:1.43082"
       d="m 655.20824,256.93817 c -6.29436,-2.57726 -15.71428,-16.67319 -15.71428,-23.5148 0,-6.61656 3.56988,-14.39413 10.21319,-22.25108 3.81132,-4.5076 6.92967,-8.88399 6.92967,-9.72531 0,-2.53096 -4.24287,-7.9826 -15.726,-20.20625 -19.37047,-20.61963 -26.0611,-33.21169 -26.08974,-49.10202 -0.021,-11.6559 4.33054,-22.35334 11.86013,-29.15587 10.98318,-9.922647 10.67453,-10.098556 15.01263,8.55624 l 3.84365,16.52859 -3.02177,2.11652 c -1.66197,1.16409 -3.02158,2.88365 -3.02135,3.82124 2.2e-4,0.93759 4.2343,6.20471 9.40904,11.70471 25.37807,26.97316 31.78797,36.80095 33.13314,50.80041 0.76055,7.91519 -1.46467,19.24941 -5.36346,27.31899 -1.55203,3.21234 -2.49088,6.37618 -2.08633,7.03076 0.83429,1.3499 22.48307,8.42127 25.78147,8.42127 1.61436,0 2.04406,1.33278 1.71196,5.30992 l -0.44337,5.30995 -11.42858,3.34641 c -11.32917,3.31732 -30.8772,5.3784 -35,3.69032 z"
       id="path519"
       transform="scale(0.26458333)" />
    <rect
       style="fill:#999999;stroke-width:0.264999"
       id="rect521"
       width="18.520834"
       height="34.395832"
       x="60.476189"
       y="103.94345" />
    <rect
       style="fill:#999999;stroke-width:0.264999"
       id="rect523"
       width="2.1807792"
       height="1.5665575"
       x="78.997025"
       y="103.94345" />
    <rect
       style="fill:#999999;stroke-width:0.264999"
       id="rect525"
       width="27.931337"
       height="24.268631"
       x="222.44455"
       y="106.58967" />
    <rect
       style="fill:#999999;stroke-width:0.264999"
       id="rect527"
       width="4.0238481"
       height="22.016672"
       x="60.476189"
       y="116.32261" />
    <rect
       style="fill:#999999;stroke-width:0.264999"
       id="rect529"
       width="69.16964"
       height="4.1577382"
       x="121.33035"
       y="93.54911" />
    <rect
       style="fill:#999999;stroke-width:0.264999"
       id="rect531"
       width="16.252975"
       height="3.4017856"
       x="151.19048"
       y="87.3125" />
    <rect
       style="fill:#999999;stroke-width:0.264999"
       id="rect533"
       width="1.5119048"
       height="3.4017856"
       x="199.9494"
       y="89.202377" />
    <rect
       style="fill:#999999;stroke-width:0.264999"
       id="rect535"
       width="29.860117"
       height="3.5907736"
       x="91.470238"
       y="89.958336" />
    <rect
       style="fill:#999999;stroke-width:0.264999"
       id="rect537"
       width="157.03493"
       height="26.968067"
       x="91.470238"
       y="93.54911" />
    <rect
       style="fill:#999999;stroke-width:0.264999"
       id="rect539"
       width="41.388393"
       height="21.166666"
       x="72.949409"
       y="96.572914" />
    <rect
       style="fill:#999999;stroke-width:0.264999"
       id="rect541"
       width="19.465773"
       height="7.1815472"
       x="142.49702"
       y="86.934525" />
    <ellipse
       style="fill:#333333;stroke-width:0.264999"
       id="path547"
       cx="141.92012"
       cy="110.24868"
       rx="0.8018086"
       ry="3.8754082" />
    <rect
       style="fill:#999999;stroke-width:0.264999"
       id="rect549"
       width="110.66476"
       height="30.112843"
       x="72.949409"
       y="96.572914" />
    <rect
       style="fill:#999999;stroke-width:0.264999"
       id="rect551"
       width="92.742523"
       height="26.994225"
       x="114.9259"
       y="87.931671" />
    <rect
       style="fill:#999999;stroke-width:0.264999"
       id="rect556"
       width="1.8101624"
       height="10.018974"
       x="110.07079"
       y="59.906624" />
    <rect
       style="fill:#999999;stroke-width:0.264999"
       id="rect558"
       width="2.8957126"
       height="6.4490852"
       x="107.17508"
       y="63.476509" />
    <ellipse
       style="fill:#ffd42a;stroke-width:0.417944"
       id="path566"
       cx="153.08806"
       cy="108.36558"
       rx="92.532631"
       ry="15.112926" />
    <ellipse
       style="fill:#ffffff;stroke-width:0.264999"
       id="path568"
       cx="165.3062"
       cy="110.38231"
       rx="6.5481033"
       ry="2.1381562" />
    <ellipse
       style="fill:#ffffff;stroke-width:0.264999"
       id="path570"
       cx="149.80457"
       cy="112.52047"
       rx="3.3408689"
       ry="4.0090427" />
    <path
       style="fill:#ffd42a;stroke-width:1.01174"
       d="m 562.51955,439.33417 c -3.23635,-1.36809 -7.34057,-6.81221 -8.07105,-10.70603 -1.01771,-5.42484 0.33999,-10.1814 4.01987,-14.0832 2.81838,-2.98836 4.05317,-3.56474 7.63686,-3.56474 7.88733,0 13.44848,8.44087 11.70037,17.75913 -1.35649,7.23071 -9.64851,12.97795 -15.28605,10.59484 z"
       id="path572"
       transform="scale(0.26458333)" />
    <path
       style="fill:#ffd42a;stroke-width:1.01174"
       d="m 560.69768,437.15498 c -7.39334,-5.81561 -7.61025,-18.5393 -0.40212,-23.58808 2.8893,-2.02374 8.79454,-2.02374 11.68384,0 7.72728,5.41241 6.71133,19.78029 -1.70648,24.1333 -4.06467,2.10193 -6.37734,1.97024 -9.57524,-0.54522 z"
       id="path574"
       transform="scale(0.26458333)" />
    <path
       style="fill:#ffd42a;stroke-width:1.01174"
       d="m 615.15844,424.04507 c -6.92175,-1.15721 -13.36514,-3.75373 -14.10599,-5.68434 -3.33081,-8.67997 36.91387,-11.81068 46.14977,-3.59008 2.71777,2.41901 2.13554,4.06209 -2.22829,6.28835 -6.75255,3.44489 -19.45922,4.71749 -29.81549,2.98607 z"
       id="path576"
       transform="scale(0.26458333)" />
    <path
       style="fill:#ff8080;stroke-width:1.01174"
       d="m 612.75219,423.10477 c -6.11213,-1.44442 -11.35984,-4.28635 -11.0478,-5.983 0.48589,-2.64193 6.99763,-5.07207 16.02036,-5.9787 15.00906,-1.50815 29.11686,1.34265 30.0268,6.06761 0.35177,1.8266 -4.25101,4.27157 -10.94587,5.81437 -5.21347,1.20142 -19.11202,1.24749 -24.05349,0.0797 z"
       id="path578"
       transform="scale(0.26458333)" />
    <path
       style="fill:#ffb380;stroke-width:1.01174"
       d="m 523.55128,465.5331 c -170.73505,-4.90703 -293.81047,-28.39573 -293.78417,-56.06813 0.0218,-22.94055 88.38841,-43.90339 221.21298,-52.47743 73.50279,-4.74472 176.10389,-4.95764 247.99245,-0.51464 137.06309,8.47104 225.33565,28.71901 228.51416,52.41662 0.54626,4.07268 0.36192,4.4276 -4.99433,9.61553 -23.40449,22.66904 -119.39248,39.68208 -259.38025,45.97291 -32.12286,1.44355 -106.48497,2.00576 -139.56084,1.05514 z m 49.43657,-26.86714 c 3.0448,-1.99504 6.23725,-8.92714 6.23725,-13.54362 0,-15.27763 -17.70089,-21.00008 -24.09585,-7.78985 -2.73141,5.64234 -2.68792,10.28361 0.14909,15.90956 3.78866,7.51315 11.10231,9.75311 17.70951,5.42391 z m 67.10231,-14.70431 c 2.61649,-0.5552 5.93685,-1.93733 7.37859,-3.0714 3.93523,-3.09546 2.98009,-5.88762 -3.04445,-8.8999 -4.69082,-2.34541 -6.09458,-2.52538 -19.69797,-2.52538 -12.95732,0 -15.20218,0.25628 -19.45737,2.22132 -17.81302,8.22602 9.13477,17.72579 34.8212,12.27536 z"
       id="path580"
       transform="scale(0.26458333)" />
    <ellipse
       style="fill:#ffb380;stroke-width:0.264999"
       id="path586"
       cx="160.76262"
       cy="111.91911"
       rx="18.441597"
       ry="6.481286" />
  </g>
</svg>
